<svg xmlns="http://www.w3.org/2000/svg" width="1440" height="900" viewBox="0 0 1440 900" role="img" aria-labelledby="title description">
  <title id="title">FlowOS home screen</title>
  <desc id="description">FlowOS desktop interface with a translucent sidebar, natural-language command bar, local search shortcuts, and private recent activity.</desc>
  <defs>
    <linearGradient id="background" x1="0" y1="0" x2="1" y2="1">
      <stop stop-color="#0d0e15"/>
      <stop offset="0.55" stop-color="#090a10"/>
      <stop offset="1" stop-color="#0d1018"/>
    </linearGradient>
    <radialGradient id="aurora" cx="65%" cy="0%" r="70%">
      <stop stop-color="#6257b1" stop-opacity="0.22"/>
      <stop offset="0.7" stop-color="#26223f" stop-opacity="0.04"/>
      <stop offset="1" stop-color="#090a10" stop-opacity="0"/>
    </radialGradient>
    <linearGradient id="sidebar" x1="0" y1="0" x2="1" y2="1">
      <stop stop-color="#191a23" stop-opacity="0.92"/>
      <stop offset="1" stop-color="#101119" stop-opacity="0.88"/>
    </linearGradient>
    <linearGradient id="mark" x1="0" y1="0" x2="1" y2="1">
      <stop stop-color="#c7bcff"/>
      <stop offset="0.56" stop-color="#897be8"/>
      <stop offset="1" stop-color="#5a53a5"/>
    </linearGradient>
    <linearGradient id="command" x1="0" y1="0" x2="1" y2="1">
      <stop stop-color="#282936" stop-opacity="0.94"/>
      <stop offset="1" stop-color="#181921" stop-opacity="0.92"/>
    </linearGradient>
    <linearGradient id="active" x1="0" y1="0" x2="1" y2="0">
      <stop stop-color="#ab9aff" stop-opacity="0.18"/>
      <stop offset="1" stop-color="#8e82d4" stop-opacity="0.08"/>
    </linearGradient>
    <filter id="shadow" x="-30%" y="-60%" width="160%" height="240%">
      <feDropShadow dx="0" dy="28" stdDeviation="30" flood-color="#000000" flood-opacity="0.45"/>
    </filter>
    <filter id="soft-shadow" x="-50%" y="-50%" width="200%" height="200%">
      <feDropShadow dx="0" dy="10" stdDeviation="12" flood-color="#5d4fc2" flood-opacity="0.28"/>
    </filter>
  </defs>

  <rect width="1440" height="900" rx="24" fill="url(#background)"/>
  <rect x="238" width="1202" height="900" rx="24" fill="url(#aurora)"/>
  <rect width="238" height="900" rx="24" fill="url(#sidebar)"/>
  <path d="M238 0v900M238 56h1202" stroke="#fff" stroke-opacity="0.075"/>

  <g transform="translate(20 18)">
    <rect width="32" height="32" rx="10" fill="url(#mark)" filter="url(#soft-shadow)"/>
    <g fill="#fff" fill-opacity="0.88">
      <path d="M7 7h8v8H7z" rx="5"/>
      <path d="M17 7h8v8h-8z"/>
      <path d="M17 17h8v8h-8z"/>
      <path d="M7 17h8v8H7z"/>
    </g>
    <circle cx="16" cy="16" r="3" fill="#fff"/>
  </g>
  <text x="62" y="37" fill="#f3f2f7" font-family="Arial,sans-serif" font-size="15" font-weight="700">FlowOS</text>
  <text x="62" y="50" fill="#dfe1ea" fill-opacity="0.38" font-family="Arial,sans-serif" font-size="8">Personal intelligence</text>
  <rect x="181" y="26" width="37" height="17" rx="5" fill="none" stroke="#fff" stroke-opacity="0.09"/>
  <text x="188" y="38" fill="#ddd8f5" fill-opacity="0.48" font-family="Arial,sans-serif" font-size="7" font-weight="700">ALPHA</text>

  <rect x="13" y="74" width="212" height="40" rx="10" fill="#fff" fill-opacity="0.04" stroke="#fff" stroke-opacity="0.09"/>
  <circle cx="31" cy="94" r="6" fill="none" stroke="#dadce5" stroke-opacity="0.55" stroke-width="1.5"/>
  <path d="M35.5 98.5l4 4" stroke="#dadce5" stroke-opacity="0.55" stroke-width="1.5" stroke-linecap="round"/>
  <text x="49" y="98" fill="#e6e7ec" fill-opacity="0.66" font-family="Arial,sans-serif" font-size="10">Search or ask</text>
  <rect x="179" y="85" width="16" height="18" rx="5" fill="#fff" fill-opacity="0.045" stroke="#fff" stroke-opacity="0.08"/>
  <rect x="198" y="85" width="16" height="18" rx="5" fill="#fff" fill-opacity="0.045" stroke="#fff" stroke-opacity="0.08"/>
  <text x="182" y="98" fill="#e2e3ea" fill-opacity="0.48" font-family="Arial,sans-serif" font-size="9">⌘</text>
  <text x="203" y="98" fill="#e2e3ea" fill-opacity="0.48" font-family="Arial,sans-serif" font-size="8">K</text>

  <text x="22" y="153" fill="#dfe1ea" fill-opacity="0.27" font-family="Arial,sans-serif" font-size="8" font-weight="700" letter-spacing="1">WORKSPACE</text>
  <rect x="13" y="166" width="212" height="40" rx="9" fill="url(#active)" stroke="#c0b4ff" stroke-opacity="0.12"/>
  <g fill="#c0b4ff"><rect x="24" y="178" width="5" height="5" rx="1"/><rect x="32" y="178" width="5" height="5" rx="1"/><rect x="24" y="186" width="5" height="5" rx="1"/><rect x="32" y="186" width="5" height="5" rx="1"/></g>
  <rect x="223" y="177" width="2" height="19" rx="1" fill="#bdadff"/>
  <text x="48" y="191" fill="#f4f3ff" font-family="Arial,sans-serif" font-size="11" font-weight="600">Home</text>
  <circle cx="31" cy="231" r="6" fill="none" stroke="#e2e4eb" stroke-opacity="0.42" stroke-width="1.4"/><path d="M35 235l4 4" stroke="#e2e4eb" stroke-opacity="0.42"/>
  <text x="48" y="235" fill="#e3e6ed" fill-opacity="0.48" font-family="Arial,sans-serif" font-size="10">Search</text>
  <circle cx="31" cy="276" r="7" fill="none" stroke="#e2e4eb" stroke-opacity="0.42" stroke-width="1.3"/><path d="M31 272v5l3 2" fill="none" stroke="#e2e4eb" stroke-opacity="0.42"/>
  <text x="48" y="280" fill="#e3e6ed" fill-opacity="0.48" font-family="Arial,sans-serif" font-size="10">Recents</text>

  <rect x="13" y="732" width="212" height="54" rx="11" fill="#73c9a4" fill-opacity="0.04" stroke="#8fe3c1" stroke-opacity="0.11"/>
  <rect x="23" y="744" width="27" height="27" rx="8" fill="#75cea9" fill-opacity="0.08"/>
  <path d="M31 751l6-3 6 3v5c0 5-6 8-6 8s-6-3-6-8z" fill="none" stroke="#8cd8bb" stroke-width="1.2"/>
  <text x="59" y="753" fill="#e8f2ee" fill-opacity="0.76" font-family="Arial,sans-serif" font-size="9" font-weight="600">Private on this Mac</text>
  <text x="59" y="768" fill="#ccded6" fill-opacity="0.38" font-family="Arial,sans-serif" font-size="7.5">Your files never leave your device.</text>
  <path d="M13 836h212" stroke="#fff" stroke-opacity="0.075"/>
  <circle cx="34" cy="863" r="14" fill="#403c52" stroke="#fff" stroke-opacity="0.1"/>
  <text x="26" y="867" fill="#f5f4ff" fill-opacity="0.82" font-family="Arial,sans-serif" font-size="8" font-weight="600">AN</text>
  <text x="56" y="859" fill="#f1f1f5" fill-opacity="0.76" font-family="Arial,sans-serif" font-size="9" font-weight="600">Personal workspace</text>
  <text x="56" y="873" fill="#dfe1ea" fill-opacity="0.27" font-family="Arial,sans-serif" font-size="8">On-device</text>

  <text x="266" y="35" fill="#dfe1e8" fill-opacity="0.27" font-family="Arial,sans-serif" font-size="9">FlowOS</text>
  <text x="306" y="35" fill="#dfe1e8" fill-opacity="0.18" font-family="Arial,sans-serif" font-size="11">›</text>
  <text x="320" y="35" fill="#ebecef" fill-opacity="0.6" font-family="Arial,sans-serif" font-size="9" font-weight="600">Home</text>
  <rect x="1282" y="17" width="129" height="27" rx="14" fill="#fff" fill-opacity="0.025" stroke="#fff" stroke-opacity="0.06"/>
  <circle cx="1298" cy="30.5" r="3" fill="#82d5b4"/>
  <text x="1308" y="34" fill="#d1ded9" fill-opacity="0.5" font-family="Arial,sans-serif" font-size="8">Local engine ready</text>

  <g transform="translate(238)">
    <g transform="translate(586 131)">
      <rect width="54" height="54" rx="18" fill="#9b8eea" fill-opacity="0.08" stroke="#cbc2ff" stroke-opacity="0.13"/>
      <rect x="11" y="11" width="32" height="32" rx="10" fill="url(#mark)" filter="url(#soft-shadow)"/>
      <g fill="#fff" fill-opacity="0.88"><rect x="18" y="18" width="8" height="8"/><rect x="28" y="18" width="8" height="8"/><rect x="28" y="28" width="8" height="8"/><rect x="18" y="28" width="8" height="8"/></g>
      <circle cx="27" cy="27" r="3" fill="#fff"/>
    </g>
    <text x="510" y="211" fill="#c7c0eb" fill-opacity="0.49" font-family="Arial,sans-serif" font-size="9" font-weight="600">Your calm space to get things done</text>
    <text x="364" y="278" fill="#f5f4f8" font-family="Arial,sans-serif" font-size="48" font-weight="600" letter-spacing="-2">Everything you need,</text>
    <text x="394" y="334" fill="#bdb2ed" font-family="Arial,sans-serif" font-size="48" font-weight="600" letter-spacing="-2">one thought away.</text>
    <text x="435" y="374" fill="#dee0e8" fill-opacity="0.42" font-family="Arial,sans-serif" font-size="12">Find files and move through your work without losing focus.</text>

    <rect x="276" y="414" width="674" height="94" rx="17" fill="url(#command)" stroke="#c9bdff" stroke-opacity="0.35" filter="url(#shadow)"/>
    <path d="M308 438l3-8 3 8 8 3-8 3-3 8-3-8-8-3z" fill="none" stroke="#b8aaff" stroke-width="1.5"/>
    <text x="338" y="447" fill="#e4e5eb" fill-opacity="0.3" font-family="Arial,sans-serif" font-size="12">What would you like to find?</text>
    <rect x="899" y="427" width="38" height="38" rx="11" fill="#b8a8ff" stroke="#fff" stroke-opacity="0.28"/>
    <path d="M918 454v-16m0 0l-7 7m7-7l7 7" fill="none" stroke="#29243a" stroke-width="2" stroke-linecap="round"/>
    <path d="M276 477h674" stroke="#fff" stroke-opacity="0.06"/>
    <text x="296" y="496" fill="#dfe1ea" fill-opacity="0.27" font-family="Arial,sans-serif" font-size="8">⌘  ENTER TO SEARCH</text>
    <text x="809" y="496" fill="#dfe1ea" fill-opacity="0.27" font-family="Arial,sans-serif" font-size="8">PRIVATE AND ON-DEVICE</text>

    <g font-family="Arial,sans-serif">
      <g transform="translate(276 522)"><rect width="162" height="59" rx="13" fill="#fff" fill-opacity="0.024" stroke="#fff" stroke-opacity="0.08"/><rect x="10" y="13" width="32" height="32" rx="9" fill="#69a9f1" fill-opacity="0.1"/><text x="20" y="34" fill="#9bc7ff" font-size="16">⌕</text><text x="51" y="27" fill="#f1f1f5" fill-opacity="0.8" font-size="9" font-weight="600">Find a file</text><text x="51" y="42" fill="#dfe1ea" fill-opacity="0.27" font-size="7.5">Across this Mac</text></g>
      <g transform="translate(446 522)"><rect width="162" height="59" rx="13" fill="#fff" fill-opacity="0.024" stroke="#fff" stroke-opacity="0.08"/><rect x="10" y="13" width="32" height="32" rx="9" fill="#a78bf4" fill-opacity="0.1"/><circle cx="26" cy="29" r="7" fill="none" stroke="#c1b0ff"/><path d="M26 25v5l3 2" fill="none" stroke="#c1b0ff"/><text x="51" y="27" fill="#f1f1f5" fill-opacity="0.8" font-size="9" font-weight="600">Recent work</text><text x="51" y="42" fill="#dfe1ea" fill-opacity="0.27" font-size="7.5">Continue your flow</text></g>
      <g transform="translate(616 522)"><rect width="162" height="59" rx="13" fill="#fff" fill-opacity="0.024" stroke="#fff" stroke-opacity="0.08"/><rect x="10" y="13" width="32" height="32" rx="9" fill="#dd9e67" fill-opacity="0.1"/><path d="M20 22h12l4 4v11H20zM32 22v5h4" fill="none" stroke="#e9bc94"/><text x="51" y="27" fill="#f1f1f5" fill-opacity="0.8" font-size="9" font-weight="600">Project files</text><text x="51" y="42" fill="#dfe1ea" fill-opacity="0.27" font-size="7.5">Jump into code</text></g>
      <g transform="translate(786 522)"><rect width="164" height="59" rx="13" fill="#fff" fill-opacity="0.024" stroke="#fff" stroke-opacity="0.08"/><rect x="10" y="13" width="32" height="32" rx="9" fill="#6ccaa3" fill-opacity="0.1"/><rect x="19" y="21" width="15" height="15" rx="2" fill="none" stroke="#91daba"/><path d="M20 34l4-4 3 3 2-2 4 3" fill="none" stroke="#91daba"/><text x="51" y="27" fill="#f1f1f5" fill-opacity="0.8" font-size="9" font-weight="600">Images</text><text x="51" y="42" fill="#dfe1ea" fill-opacity="0.27" font-size="7.5">Browse visually</text></g>
    </g>

    <text x="231" y="680" fill="#c7c0eb" fill-opacity="0.49" font-family="Arial,sans-serif" font-size="9" font-weight="600">Continue</text>
    <text x="231" y="704" fill="#f5f5f7" fill-opacity="0.88" font-family="Arial,sans-serif" font-size="16" font-weight="600">Recent activity</text>
    <rect x="231" y="721" width="764" height="76" rx="14" fill="#fff" fill-opacity="0.018" stroke="#fff" stroke-opacity="0.08"/>
    <rect x="514" y="742" width="34" height="34" rx="10" fill="#fff" fill-opacity="0.025" stroke="#fff" stroke-opacity="0.08"/>
    <circle cx="531" cy="759" r="7" fill="none" stroke="#c1bbe0" stroke-opacity="0.4"/><path d="M531 755v5l3 2" fill="none" stroke="#c1bbe0" stroke-opacity="0.4"/>
    <text x="559" y="754" fill="#efeff3" fill-opacity="0.62" font-family="Arial,sans-serif" font-size="9" font-weight="600">A quiet start</text>
    <text x="559" y="770" fill="#dfe1ea" fill-opacity="0.27" font-family="Arial,sans-serif" font-size="8">Your recent searches will appear here.</text>
  </g>
</svg>
